<svg width="23" height="22" viewBox="0 0 23 22" fill="none" xmlns="http://www.w3.org/2000/svg">
<g clip-path="url(#clip0_1628_1450)">
<path d="M8.03237 4.71434V0.785767M14.3181 4.71434V0.785767M4.88951 14.1429H0.960938M4.88951 7.8572H0.960938M14.3181 17.2858V21.2143M8.03237 17.2858V21.2143M17.4609 7.8572H21.3895M17.4609 14.1429H21.3895M13.5324 11.7858H10.3895M15.8895 4.71434H6.46094C6.04417 4.71434 5.64447 4.8799 5.34977 5.1746C5.05507 5.4693 4.88951 5.869 4.88951 6.28577V15.7143C4.88951 16.1311 5.05507 16.5308 5.34977 16.8255C5.64447 17.1202 6.04417 17.2858 6.46094 17.2858H15.8895C16.3063 17.2858 16.706 17.1202 17.0007 16.8255C17.2954 16.5308 17.4609 16.1311 17.4609 15.7143V6.28577C17.4609 5.869 17.2954 5.4693 17.0007 5.1746C16.706 4.8799 16.3063 4.71434 15.8895 4.71434Z" stroke="black" stroke-width="2" stroke-linecap="round" stroke-linejoin="round"/>
</g>
<defs>
<clipPath id="clip0_1628_1450">
<rect width="22" height="22" fill="white" transform="translate(0.175293)"/>
</clipPath>
</defs>
</svg>
