<svg width="23" height="22" viewBox="0 0 23 22" fill="none" xmlns="http://www.w3.org/2000/svg">
<g clip-path="url(#clip0_1628_1460)">
<path d="M20.0938 2.88748C19.8574 2.73455 19.587 2.64204 19.3065 2.61806C19.026 2.59408 18.7439 2.63938 18.485 2.74998L10.0012 6.09123C9.8006 6.17365 9.58567 6.2157 9.36875 6.21498H3.9375C3.48166 6.21498 3.04449 6.39606 2.72216 6.71839C2.39983 7.04072 2.21875 7.47789 2.21875 7.93373V8.07123H0.5V12.1962H2.21875V12.375C2.22952 12.8236 2.41535 13.2503 2.73651 13.5637C3.05768 13.8772 3.48872 14.0526 3.9375 14.0525L6 18.425C6.13966 18.7194 6.35953 18.9685 6.63437 19.1436C6.90921 19.3187 7.22787 19.4128 7.55375 19.415H8.42C8.87345 19.4114 9.3071 19.2287 9.62646 18.9067C9.94582 18.5848 10.125 18.1497 10.125 17.6962V14.2175L18.485 17.5587C18.6909 17.6396 18.91 17.6816 19.1313 17.6825C19.4745 17.6762 19.8086 17.5711 20.0938 17.38C20.3199 17.2273 20.5065 17.0229 20.638 16.7838C20.7695 16.5447 20.8421 16.2777 20.85 16.005V4.30373C20.8487 4.02394 20.7792 3.74868 20.6474 3.50187C20.5156 3.25506 20.3256 3.04416 20.0938 2.88748ZM8.40625 7.93373V12.375H3.9375V7.93373H8.40625ZM8.40625 17.6962H7.54L5.84875 14.0525H8.40625V17.6962ZM10.6337 12.5812C10.4705 12.4979 10.3002 12.4289 10.125 12.375V7.83748C10.2985 7.8014 10.4687 7.75081 10.6337 7.68623L19.1313 4.30373V15.9637L10.6337 12.5812ZM20.8913 8.41498V11.8525C21.3471 11.8525 21.7843 11.6714 22.1066 11.3491C22.4289 11.0267 22.61 10.5896 22.61 10.1337C22.61 9.67789 22.4289 9.24072 22.1066 8.91839C21.7843 8.59606 21.3471 8.41498 20.8913 8.41498Z" fill="black"/>
</g>
<defs>
<clipPath id="clip0_1628_1460">
<rect width="22" height="22" fill="white" transform="translate(0.5)"/>
</clipPath>
</defs>
</svg>
