<svg width="23" height="20" viewBox="0 0 23 20" fill="none" xmlns="http://www.w3.org/2000/svg">
<path d="M14.2502 7.49996H14.2593M8.75016 7.49996H8.75933M20.6668 9.99996C20.6668 14.6023 16.5627 18.3333 11.5002 18.3333C6.43755 18.3333 2.3335 14.6023 2.3335 9.99996C2.3335 5.39758 6.43755 1.66663 11.5002 1.66663C16.5627 1.66663 20.6668 5.39758 20.6668 9.99996ZM14.7085 7.49996C14.7085 7.73008 14.5033 7.91663 14.2502 7.91663C13.9971 7.91663 13.7918 7.73008 13.7918 7.49996C13.7918 7.26984 13.9971 7.08329 14.2502 7.08329C14.5033 7.08329 14.7085 7.26984 14.7085 7.49996ZM9.2085 7.49996C9.2085 7.73008 9.00329 7.91663 8.75016 7.91663C8.49703 7.91663 8.29183 7.73008 8.29183 7.49996C8.29183 7.26984 8.49703 7.08329 8.75016 7.08329C9.00329 7.08329 9.2085 7.26984 9.2085 7.49996ZM11.5002 14.5833C13.7923 14.5833 15.6252 13.0558 15.6252 11.6666H7.37516C7.37516 13.0558 9.20804 14.5833 11.5002 14.5833Z" stroke="#1A1A1A" stroke-width="1.66667" stroke-linecap="round" stroke-linejoin="round"/>
</svg>
