<svg width="22" height="22" viewBox="0 0 22 22" fill="none" xmlns="http://www.w3.org/2000/svg">
<path d="M21.0834 3.75837V2.10837L19.4334 1.92504C19.3417 1.92504 18.7917 1.83337 17.875 1.83337C14.1167 1.83337 11.3667 2.93337 9.80837 4.85837C8.6167 4.12504 6.9667 3.66671 5.0417 3.66671C4.12503 3.66671 3.48337 3.75837 3.48337 3.75837L1.7417 4.03337L1.83337 5.59171C1.92503 8.34171 3.30003 13.5667 8.0667 13.5667H8.25003V16.6834C4.7667 17.1417 1.83337 18.3334 1.83337 18.3334V20.1667H20.1667V18.3334C20.1667 18.3334 17.2334 17.1417 13.75 16.6834V13.75C19.525 13.6584 21.0834 7.15004 21.0834 3.75837ZM11 16.5H10.0834V11.3667C10.0834 11.3667 9.90003 8.25004 7.33337 8.25004C7.33337 8.25004 8.70837 8.98337 9.07503 11.6417C8.70837 11.7334 8.3417 11.7334 8.0667 11.7334C3.85003 11.7334 3.6667 5.59171 3.6667 5.59171C3.6667 5.59171 4.2167 5.50004 5.0417 5.50004C6.78337 5.50004 9.62503 5.86671 10.45 8.34171C10.9084 4.21671 15.5834 3.66671 17.875 3.66671C18.7 3.66671 19.25 3.75837 19.25 3.75837C19.25 3.75837 19.25 12.0084 13.475 12.0084H12.8334C12.8334 10.175 14.6667 7.42504 14.6667 7.42504C11.9167 8.34171 11.9167 11.9167 11.9167 11.9167V16.5H11Z" fill="black"/>
</svg>
