<svg width="23" height="22" viewBox="0 0 23 22" fill="none" xmlns="http://www.w3.org/2000/svg">
<g clip-path="url(#clip0_1628_1453)">
<path d="M12.4813 1.03125V2.75H13.8357C14.2537 2.75 14.6648 2.86 15.0278 3.06763L16.8016 4.07963C16.8547 4.10988 16.9116 4.125 16.9721 4.125H20.0438C20.3173 4.125 20.5796 4.23365 20.773 4.42705C20.9664 4.62044 21.0751 4.88275 21.0751 5.15625C21.0751 5.42975 20.9664 5.69206 20.773 5.88545C20.5796 6.07885 20.3173 6.1875 20.0438 6.1875H19.4567L22.3593 12.639C22.4451 12.8299 22.4708 13.0423 22.433 13.2481C22.3951 13.4539 22.2956 13.6434 22.1476 13.7912L21.4188 13.0625L22.1462 13.7926L22.1448 13.7954L22.1421 13.7981L22.1338 13.8064L22.1256 13.8132L22.1118 13.827L22.0499 13.882C21.7594 14.1249 21.4449 14.3312 21.1067 14.5007C20.4646 14.8225 19.5351 15.125 18.3251 15.125C17.3619 15.1363 16.4094 14.9225 15.5434 14.5007C15.2059 14.3322 14.8893 14.1245 14.6002 13.882L14.5383 13.827L14.5163 13.8064L14.5081 13.7981L14.5026 13.7926V13.7912C14.3545 13.6434 14.255 13.4539 14.2172 13.2481C14.1794 13.0423 14.205 12.8299 14.2908 12.639L17.1948 6.1875H16.9721C16.5527 6.1875 16.1416 6.07888 15.7786 5.86987L14.0048 4.85787C13.9529 4.82817 13.8941 4.81253 13.8343 4.8125H12.4813V17.875H15.9188C16.1923 17.875 16.4546 17.9837 16.648 18.177C16.8414 18.3704 16.9501 18.6327 16.9501 18.9062C16.9501 19.1798 16.8414 19.4421 16.648 19.6355C16.4546 19.8288 16.1923 19.9375 15.9188 19.9375H6.98132C6.70781 19.9375 6.44551 19.8288 6.25211 19.6355C6.05872 19.4421 5.95007 19.1798 5.95007 18.9062C5.95007 18.6327 6.05872 18.3704 6.25211 18.177C6.44551 17.9837 6.70781 17.875 6.98132 17.875H10.4188V4.8125H9.06582C9.006 4.81253 8.94724 4.82817 8.89532 4.85787L7.12294 5.87125C6.75857 6.0775 6.34744 6.1875 5.92807 6.1875H5.70532L8.60932 12.639C8.69509 12.8299 8.72077 13.0423 8.68295 13.2481C8.64513 13.4539 8.5456 13.6434 8.39757 13.7912L7.66882 13.0625L8.39619 13.7926L8.39482 13.7954L8.39207 13.7981L8.38382 13.8064L8.36182 13.827L8.29994 13.882C8.00936 14.1249 7.69494 14.3312 7.35669 14.5007C6.71457 14.8225 5.78507 15.125 4.57507 15.125C3.61191 15.1363 2.65942 14.9225 1.79344 14.5007C1.45586 14.3322 1.13926 14.1245 0.850192 13.882L0.788317 13.827L0.766317 13.8064L0.758067 13.7981L0.752567 13.7926V13.7912C0.604537 13.6434 0.505002 13.4539 0.467181 13.2481C0.429359 13.0423 0.455042 12.8299 0.540817 12.639L3.44482 6.1875H2.85632C2.58281 6.1875 2.32051 6.07885 2.12711 5.88545C1.93372 5.69206 1.82507 5.42975 1.82507 5.15625C1.82507 4.88275 1.93372 4.62044 2.12711 4.42705C2.32051 4.23365 2.58281 4.125 2.85632 4.125H5.92807C5.98835 4.12521 6.04762 4.10956 6.09994 4.07963L7.87094 3.06625C8.23532 2.86 8.64644 2.75 9.06582 2.75H10.4188V1.03125C10.4188 0.757746 10.5275 0.495443 10.7209 0.302046C10.9143 0.108649 11.1766 0 11.4501 0C11.7236 0 11.9859 0.108649 12.1793 0.302046C12.3727 0.495443 12.4813 0.757746 12.4813 1.03125ZM16.5307 12.6871C16.9226 12.8728 17.5179 13.0625 18.3251 13.0625C19.1322 13.0625 19.7276 12.8728 20.1194 12.6871L18.3251 8.69963L16.5307 12.6871ZM2.78069 12.6871C3.17257 12.8728 3.76794 13.0625 4.57507 13.0625C5.38219 13.0625 5.97757 12.8728 6.36944 12.6871L4.57507 8.69963L2.78069 12.6871Z" fill="black"/>
</g>
<defs>
<clipPath id="clip0_1628_1453">
<rect width="22" height="22" fill="white" transform="translate(0.450195)"/>
</clipPath>
</defs>
</svg>
