<svg width="23" height="23" viewBox="0 0 23 23" fill="none" xmlns="http://www.w3.org/2000/svg">
<path d="M4.6898 20.9121V17.658C4.6898 16.4929 4.38455 15.887 3.78505 14.874C3.05422 13.6367 2.66368 12.228 2.65305 10.7909C2.64243 9.3539 3.01209 7.93961 3.72455 6.69157C4.437 5.44352 5.46689 4.40612 6.70973 3.68462C7.95257 2.96312 9.36413 2.58319 10.8012 2.58337C12.9619 2.58362 15.034 3.44192 16.562 4.96956C18.09 6.49721 18.9487 8.56913 18.9495 10.7298C18.9495 11.2615 18.9495 11.5273 18.9715 11.6758C19.0246 12.0315 19.1915 12.3376 19.3537 12.6548L20.9863 15.821L19.703 16.4626C19.3317 16.6478 19.1456 16.7404 19.0164 16.9118C18.8871 17.0832 18.8505 17.2775 18.7781 17.6635L18.7707 17.702C18.603 18.5893 18.4187 19.5683 17.8999 20.1861C17.7166 20.4034 17.4892 20.5803 17.2335 20.7059C16.8109 20.9121 16.2911 20.9121 15.2516 20.9121C14.7704 20.9121 14.2882 20.9231 13.807 20.9121C12.6676 20.8837 11.8196 19.9249 11.8196 18.813" stroke="black" stroke-width="2" stroke-linecap="round" stroke-linejoin="round"/>
<path d="M14.0088 10.4044C13.6183 10.4044 13.2617 10.2559 12.9913 10.0129M14.0088 10.4044C14.0088 11.4549 13.4001 12.4522 12.2286 12.4522C11.0571 12.4522 10.4485 13.4495 10.4485 14.5M14.0088 10.4044C15.9796 10.4044 15.9796 7.3326 14.0088 7.3326C13.8291 7.33321 13.6589 7.36224 13.4982 7.41969C13.5945 5.12985 10.2935 4.50835 9.54554 6.65335M9.54554 6.65335C10.091 7.02094 10.4485 7.6461 10.4485 8.3556M9.54554 6.65335C7.84788 5.50752 5.58554 7.5636 6.66171 9.39694C4.85588 9.66735 5.04838 12.4522 6.88813 12.4522C7.13343 12.4521 7.37507 12.3927 7.59246 12.279C7.80985 12.1654 7.99654 12.0009 8.13663 11.7995" stroke="black" stroke-linecap="round" stroke-linejoin="round"/>
</svg>
