<svg width="46" height="47" viewBox="0 0 46 47" fill="none" xmlns="http://www.w3.org/2000/svg">
<rect y="0.5" width="46" height="46" rx="23" fill="#FF4B4B"/>
<path d="M17.8533 16.5267L23 21.6733L28.12 16.5533C28.2331 16.433 28.3693 16.3367 28.5205 16.2702C28.6718 16.2038 28.8348 16.1686 29 16.1667C29.3536 16.1667 29.6928 16.3071 29.9428 16.5572C30.1929 16.8072 30.3333 17.1464 30.3333 17.5C30.3364 17.6635 30.3061 17.8259 30.2442 17.9772C30.1823 18.1285 30.0901 18.2656 29.9733 18.38L24.7867 23.5L29.9733 28.6867C30.1931 28.9017 30.3219 29.1928 30.3333 29.5C30.3333 29.8536 30.1929 30.1928 29.9428 30.4428C29.6928 30.6929 29.3536 30.8333 29 30.8333C28.8301 30.8404 28.6605 30.812 28.5021 30.7501C28.3438 30.6881 28.2 30.5938 28.08 30.4733L23 25.3267L17.8667 30.46C17.754 30.5764 17.6194 30.6693 17.4707 30.7333C17.3219 30.7974 17.1619 30.8314 17 30.8333C16.6464 30.8333 16.3072 30.6929 16.0572 30.4428C15.8071 30.1928 15.6667 29.8536 15.6667 29.5C15.6636 29.3365 15.6939 29.1742 15.7558 29.0228C15.8177 28.8715 15.9099 28.7344 16.0267 28.62L21.2133 23.5L16.0267 18.3133C15.8069 18.0984 15.678 17.8072 15.6667 17.5C15.6667 17.1464 15.8071 16.8072 16.0572 16.5572C16.3072 16.3071 16.6464 16.1667 17 16.1667C17.32 16.1707 17.6267 16.3 17.8533 16.5267Z" fill="white"/>
</svg>
