<svg width="24" height="24" viewBox="0 0 24 24" fill="none" xmlns="http://www.w3.org/2000/svg">
<path d="M20.68 7.014C20.4579 6.54995 20.1451 6.13512 19.76 5.794L16.76 3.074C16.0997 2.46875 15.2613 2.09339 14.37 2.004H8.21C7.54756 1.97591 6.88615 2.07985 6.26425 2.30978C5.64236 2.53971 5.07241 2.89103 4.58757 3.3433C4.10273 3.79557 3.71269 4.33975 3.44014 4.94418C3.16758 5.54861 3.01797 6.20121 3 6.864V17.164C3.03538 18.1635 3.36969 19.1295 3.95975 19.937C4.54981 20.7445 5.36849 21.3566 6.31 21.694C6.92211 21.9267 7.57609 22.0288 8.23 21.994H15.79C16.4524 22.0221 17.1139 21.9181 17.7357 21.6882C18.3576 21.4583 18.9276 21.107 19.4124 20.6547C19.8973 20.2024 20.2873 19.6582 20.5599 19.0538C20.8324 18.4494 20.982 17.7968 21 17.134V8.564C21.0048 8.03045 20.8957 7.50202 20.68 7.014ZM15.84 15.094L13.18 17.764C13.0269 17.9129 12.8471 18.0317 12.65 18.114C12.516 18.174 12.376 18.2107 12.23 18.224C12.0984 18.254 11.9616 18.254 11.83 18.224C11.6848 18.2111 11.5428 18.174 11.41 18.114C11.2129 18.0317 11.0331 17.9129 10.88 17.764L8.22 15.094C8.05617 14.9027 7.97057 14.6566 7.98029 14.4049C7.99001 14.1533 8.09434 13.9145 8.27244 13.7364C8.45053 13.5583 8.68927 13.454 8.94095 13.4443C9.19262 13.4346 9.4387 13.5202 9.63 13.684L11.03 15.084V10.474C11.03 10.2088 11.1354 9.95443 11.3229 9.76689C11.5104 9.57936 11.7648 9.474 12.03 9.474C12.2952 9.474 12.5496 9.57936 12.7371 9.76689C12.9246 9.95443 13.03 10.2088 13.03 10.474V15.084L14.43 13.684C14.6213 13.5202 14.8674 13.4346 15.1191 13.4443C15.3707 13.454 15.6095 13.5583 15.7876 13.7364C15.9657 13.9145 16.07 14.1533 16.0797 14.4049C16.0894 14.6566 16.0038 14.9027 15.84 15.094ZM16.06 7.404C15.9173 7.40532 15.7758 7.37836 15.6436 7.32468C15.5114 7.271 15.3912 7.19165 15.2899 7.09123C15.1885 6.99081 15.1081 6.87131 15.0532 6.73962C14.9983 6.60793 14.97 6.46667 14.97 6.324V3.674C15.25 3.826 15.52 3.996 15.78 4.184L18.78 6.914C18.9467 7.05467 19.0867 7.218 19.2 7.404H16.06Z" fill="white"/>
</svg>
