<svg width="177" height="68" viewBox="0 0 177 68" fill="none" xmlns="http://www.w3.org/2000/svg">
<path d="M104.75 15.322C105.623 15.883 106.101 16.3197 106.595 17.1247C106.631 17.5552 106.645 17.9871 106.647 18.4187C106.65 18.8262 106.65 18.8262 106.653 19.242C106.654 19.5409 106.654 19.8398 106.655 20.1477C106.656 20.4619 106.658 20.776 106.66 21.0997C106.666 22.1427 106.668 23.1857 106.67 24.2286C106.672 24.9517 106.674 25.6747 106.676 26.3978C106.68 27.9155 106.683 29.4332 106.684 30.951C106.686 32.8969 106.695 34.8427 106.705 36.7886C106.712 38.2828 106.714 39.7769 106.715 41.2711C106.716 41.9885 106.719 42.7059 106.723 43.4233C106.73 44.4267 106.729 45.43 106.727 46.4334C106.73 46.7305 106.733 47.0276 106.737 47.3337C106.726 48.8159 106.713 49.8873 105.488 51.0753C104.347 51.5398 103.424 51.464 102.168 51.3758C101.158 50.7536 100.745 50.3876 100.491 49.3682C100.48 48.9041 100.48 48.9041 100.469 48.4305C100.458 48.0746 100.446 47.7187 100.434 47.352C100.429 46.963 100.424 46.5739 100.419 46.1731C100.409 45.7592 100.399 45.3453 100.388 44.9314C100.355 43.5744 100.338 42.2173 100.323 40.8601C100.316 40.3903 100.31 39.9205 100.304 39.4507C100.266 36.5211 100.254 33.5918 100.254 30.6621C100.254 29.3932 100.249 28.1243 100.243 26.8554C100.239 25.8617 100.238 24.8681 100.238 23.8744C100.238 23.406 100.236 22.9375 100.233 22.4691C100.207 17.7707 100.207 17.7707 101.061 15.9229C102.433 15.1777 103.126 15.1828 104.75 15.322Z" fill="#6DFF00"/>
<path d="M93.6814 15.322C94.554 15.883 95.032 16.3197 95.5263 17.1247C95.5625 17.5552 95.5761 17.9871 95.5781 18.4187C95.5813 18.8262 95.5813 18.8262 95.5845 19.242C95.5849 19.5409 95.5853 19.8398 95.5857 20.1477C95.5876 20.4619 95.5894 20.776 95.5913 21.0997C95.5967 22.1427 95.5992 23.1857 95.6012 24.2286C95.6033 24.9517 95.6055 25.6747 95.6076 26.3978C95.6115 27.9155 95.6136 29.4332 95.6149 30.951C95.6169 32.8969 95.6258 34.8427 95.6363 36.7886C95.6432 38.2828 95.6451 39.7769 95.6457 41.2711C95.6468 41.9885 95.6497 42.7059 95.6546 43.4233C95.6609 44.4267 95.6602 45.43 95.6578 46.4334C95.6612 46.7305 95.6646 47.0276 95.6681 47.3337C95.657 48.8159 95.644 49.8873 94.4194 51.0753C93.2786 51.5398 92.3552 51.464 91.0986 51.3758C90.2904 50.9579 90.2904 50.9579 89.6227 50.174C89.3947 49.1686 89.4071 48.1724 89.4096 47.1522C89.4046 46.8453 89.3996 46.5383 89.3944 46.2221C89.3798 45.2062 89.3757 44.1905 89.3719 43.1745C89.3645 42.4679 89.3566 41.7614 89.3481 41.0548C89.332 39.5728 89.3207 38.0908 89.3132 36.6086C89.3034 34.712 89.2839 32.8154 89.261 30.9188C89.244 29.4589 89.231 27.999 89.2193 26.5391C89.2135 25.84 89.2067 25.141 89.1989 24.4419C89.1889 23.4625 89.184 22.4832 89.1804 21.5038C89.1766 21.2165 89.1728 20.9292 89.1689 20.6333C89.1692 18.9622 89.3296 17.5121 89.9917 15.9229C91.3645 15.1777 92.0572 15.1828 93.6814 15.322Z" fill="#6DFF00"/>
<path d="M137.958 18.3266C138.831 18.8876 139.309 19.3243 139.803 20.1293C139.843 20.9556 139.861 21.7743 139.863 22.6008C139.864 22.8563 139.866 23.1119 139.868 23.3752C139.874 24.2231 139.876 25.0709 139.878 25.9188C139.88 26.5072 139.882 27.0955 139.884 27.6838C139.888 28.9186 139.891 30.1535 139.892 31.3883C139.894 32.9705 139.903 34.5526 139.913 36.1347C139.92 37.3505 139.922 38.5663 139.923 39.7821C139.924 40.3654 139.927 40.9486 139.931 41.5318C139.938 42.3482 139.937 43.1644 139.935 43.9807C139.938 44.2216 139.941 44.4625 139.945 44.7107C139.932 46.0825 139.753 46.9841 138.696 48.071C137.555 48.5355 136.632 48.4597 135.375 48.3715C134.566 47.9306 134.566 47.9306 133.9 47.1697C133.754 46.2487 133.698 45.4358 133.709 44.5149C133.706 44.2471 133.703 43.9792 133.701 43.7033C133.694 42.8181 133.699 41.9332 133.704 41.048C133.703 40.4329 133.701 39.8178 133.699 39.2027C133.697 37.9135 133.7 36.6245 133.707 35.3354C133.716 33.6825 133.711 32.0297 133.702 30.3768C133.697 29.1066 133.698 27.8365 133.702 26.5663C133.703 25.9568 133.702 25.3473 133.698 24.7378C133.695 23.8861 133.7 23.0348 133.709 22.1832C133.706 21.9309 133.703 21.6787 133.7 21.4188C133.719 20.3326 133.779 19.665 134.569 18.771C135.755 18.1176 136.56 18.164 137.958 18.3266Z" fill="#6DFF00"/>
<path d="M60.4737 21.3311C61.3463 21.8921 61.8242 22.3288 62.3185 23.1338C62.3581 23.7732 62.3735 24.4135 62.378 25.0537C62.3798 25.2506 62.3817 25.4475 62.3835 25.6505C62.3889 26.3033 62.3915 26.956 62.3935 27.6089C62.3956 28.0625 62.3977 28.5161 62.3999 28.9697C62.4037 29.9216 62.4059 30.8735 62.4072 31.8255C62.4092 33.0439 62.4181 34.2622 62.4286 35.4807C62.4355 36.4181 62.4374 37.3555 62.4379 38.293C62.439 38.7421 62.442 39.1911 62.4469 39.6402C62.4532 40.2695 62.4525 40.8985 62.4501 41.5279C62.4514 41.8857 62.4528 42.2434 62.4541 42.6121C62.3047 43.6617 61.9848 44.2263 61.2116 45.0666C60.0709 45.531 59.1475 45.4552 57.8909 45.367C56.8182 44.7004 56.4741 44.3096 56.046 43.2639C56.0076 42.6439 55.9912 42.023 55.9866 41.4022C55.983 41.0181 55.9795 40.6339 55.9758 40.2382C55.974 39.818 55.9724 39.3979 55.9711 38.9778C55.9689 38.5463 55.9668 38.1147 55.9647 37.6832C55.9608 36.778 55.9587 35.8728 55.9574 34.9676C55.9553 33.8116 55.9465 32.6556 55.936 31.4996C55.9291 30.6078 55.9272 29.7159 55.9266 28.8241C55.9255 28.3981 55.9226 27.9722 55.9177 27.5463C55.8731 23.3447 55.8731 23.3447 57.1529 21.6316C58.2937 21.1671 59.2171 21.2429 60.4737 21.3311Z" fill="#6DFF00"/>
<path d="M82.6121 21.331C83.4847 21.892 83.9626 22.3287 84.4569 23.1337C84.4964 23.7623 84.5119 24.3918 84.5164 25.0212C84.5182 25.2147 84.52 25.4083 84.5219 25.6077C84.5273 26.2493 84.5298 26.8908 84.5319 27.5325C84.534 27.9786 84.5361 28.4248 84.5382 28.8709C84.5421 29.8074 84.5443 30.744 84.5456 31.6805C84.5476 32.878 84.5564 34.0754 84.5669 35.2729C84.5738 36.1952 84.5757 37.1174 84.5763 38.0397C84.5774 38.481 84.5804 38.9223 84.5852 39.3635C84.5916 39.9827 84.5908 40.6016 84.5884 41.2208C84.5898 41.5726 84.5911 41.9244 84.5925 42.2868C84.439 43.393 84.0572 44.1188 83.35 45.0664C82.2092 45.5309 81.2859 45.4551 80.0292 45.3669C78.9138 44.7694 78.6103 44.3852 78.3353 43.3224C78.0677 41.5541 78.1243 39.7657 78.1224 37.9871C78.1212 37.595 78.1199 37.2028 78.1187 36.7988C78.1165 35.9715 78.1158 35.1442 78.116 34.3169C78.116 33.2613 78.111 32.2057 78.1047 31.1501C78.0995 30.1367 78.0998 29.1233 78.0993 28.1099C78.0967 27.733 78.094 27.3562 78.0913 26.9679C78.1024 23.5126 78.1024 23.5126 78.9223 21.9319C80.2951 21.1867 80.9878 21.1918 82.6121 21.331Z" fill="#6DFF00"/>
<path d="M115.82 21.331C116.692 21.892 117.17 22.3287 117.664 23.1337C117.704 23.7731 117.719 24.4134 117.724 25.0536C117.726 25.2505 117.728 25.4474 117.729 25.6504C117.735 26.3032 117.737 26.9559 117.739 27.6088C117.742 28.0624 117.744 28.516 117.746 28.9696C117.75 29.9215 117.752 30.8734 117.753 31.8254C117.755 33.0438 117.764 34.2621 117.775 35.4805C117.781 36.418 117.783 37.3554 117.784 38.2929C117.785 38.742 117.788 39.191 117.793 39.6401C117.799 40.2694 117.798 40.8984 117.796 41.5278C117.797 41.8855 117.799 42.2433 117.8 42.612C117.651 43.6616 117.331 44.2262 116.558 45.0665C115.417 45.5309 114.493 45.4551 113.237 45.3669C112.427 44.8916 112.427 44.8916 111.761 44.1651C111.574 43.2074 111.574 43.2074 111.57 42.062C111.567 41.8527 111.565 41.6435 111.562 41.4279C111.556 40.7378 111.56 40.0481 111.565 39.3579C111.564 38.8775 111.562 38.3971 111.561 37.9167C111.558 36.9105 111.562 35.9044 111.569 34.8982C111.577 33.6089 111.572 32.32 111.563 31.0308C111.558 30.0389 111.56 29.0472 111.563 28.0553C111.564 27.58 111.563 27.1047 111.56 26.6294C111.556 25.9647 111.562 25.3006 111.57 24.636C111.571 24.258 111.572 23.88 111.574 23.4905C111.971 21.4591 113.477 21.0585 115.82 21.331Z" fill="#6DFF00"/>
<path d="M126.889 21.331C127.962 21.9976 128.306 22.3884 128.734 23.4342C128.772 24.0649 128.789 24.6966 128.793 25.3282C128.797 25.7193 128.8 26.1104 128.804 26.5134C128.806 26.9411 128.807 27.3688 128.809 27.7965C128.811 28.2355 128.813 28.6745 128.815 29.1135C128.819 30.0341 128.821 30.9547 128.822 31.8753C128.824 33.0522 128.833 34.2291 128.844 35.406C128.851 36.3131 128.853 37.2201 128.853 38.1272C128.854 38.5609 128.857 38.9946 128.862 39.4284C128.868 40.0366 128.867 40.6449 128.865 41.2531C128.867 41.5987 128.868 41.9442 128.869 42.3002C128.715 43.399 128.328 44.1244 127.627 45.0665C126.486 45.5309 125.563 45.4551 124.306 45.3669C123.497 44.8916 123.497 44.8916 122.83 44.1651C122.643 43.2074 122.643 43.2074 122.639 42.062C122.637 41.8527 122.634 41.6435 122.631 41.4279C122.625 40.7378 122.629 40.0481 122.634 39.3579C122.633 38.8775 122.632 38.3971 122.63 37.9167C122.628 36.9105 122.631 35.9044 122.638 34.8982C122.646 33.6089 122.641 32.32 122.633 31.0308C122.627 30.0389 122.629 29.0472 122.633 28.0553C122.634 27.58 122.633 27.1047 122.629 26.6294C122.625 25.9647 122.631 25.3006 122.639 24.636C122.64 24.258 122.642 23.88 122.643 23.4905C123.04 21.4591 124.546 21.0585 126.889 21.331Z" fill="#6DFF00"/>
<path d="M49.4047 27.3399C50.2773 27.9009 50.7553 28.3376 51.2496 29.1426C51.3502 30.5244 51.3351 31.9087 51.3418 33.2926C51.3494 33.6785 51.357 34.0644 51.3649 34.4621C51.3668 34.8341 51.3687 35.2061 51.3706 35.5893C51.3758 36.1005 51.3758 36.1005 51.3811 36.6219C51.2345 37.6621 50.9061 38.2231 50.1427 39.0574C49.0019 39.5219 48.0785 39.4461 46.8219 39.3579C45.7492 38.6913 45.4051 38.3004 44.977 37.2547C44.881 36.0292 44.8916 34.802 44.8848 33.5742C44.8772 33.2377 44.8696 32.9011 44.8617 32.5543C44.8509 30.6894 44.9198 29.2693 46.084 27.6404C47.2247 27.1759 48.1481 27.2517 49.4047 27.3399Z" fill="#6DFF00"/>
<path d="M38.2433 27.3587C39.4837 27.9609 39.7143 28.0915 40.1804 29.1426C40.3392 30.4788 40.3 31.8193 40.2957 33.1611C40.3016 33.5275 40.3076 33.8939 40.3137 34.2714C40.3139 34.6261 40.3142 34.9809 40.3144 35.3464C40.3155 35.6692 40.3166 35.9919 40.3177 36.3245C40.1583 37.4039 39.7587 38.1292 39.0734 39.0574C37.9327 39.5219 37.0093 39.4461 35.7527 39.3578C34.68 38.6913 34.3359 38.3004 33.9078 37.2547C33.8216 36.0792 33.8395 34.9019 33.8386 33.7244C33.8341 33.4022 33.8296 33.08 33.8249 32.748C33.8211 31.0371 33.8547 29.5381 34.6458 27.9408C36.0264 27.0519 36.5387 26.9654 38.2433 27.3587Z" fill="#6DFF00"/>
<path d="M148.866 27.3775C150.134 27.9409 150.134 27.9409 150.574 28.6111C151.142 30.1995 151.008 31.8378 151.01 33.4804C151.019 33.8454 151.028 34.2105 151.038 34.5865C151.05 37.5805 151.05 37.5805 150.218 38.6995C149.396 39.3579 149.396 39.3579 148.658 39.5762C148.415 39.5661 148.171 39.5561 147.92 39.5457C147.677 39.5434 147.433 39.5411 147.182 39.5387C146.097 39.2729 145.67 38.8795 144.968 38.1561C144.777 37.1562 144.777 37.1562 144.772 35.9779C144.771 35.769 144.77 35.5602 144.768 35.345C144.767 34.9046 144.77 34.4642 144.776 34.0238C144.784 33.351 144.776 32.6791 144.767 32.0063C144.768 31.5776 144.769 31.1488 144.772 30.72C144.774 30.3312 144.776 29.9423 144.777 29.5417C144.999 28.3822 145.304 28.0333 146.444 27.34C147.551 27.0395 147.551 27.0395 148.866 27.3775Z" fill="#6DFF00"/>
<path d="M71.5432 27.34C72.4158 27.901 72.8938 28.3377 73.3881 29.1427C73.4885 30.468 73.4735 31.796 73.4803 33.1236C73.4879 33.4927 73.4955 33.8618 73.5034 34.2421C73.5053 34.5996 73.5072 34.9571 73.5091 35.3254C73.5126 35.6519 73.516 35.9785 73.5196 36.315C73.3674 37.4024 72.9724 38.124 72.2811 39.0575C71.1404 39.5219 70.217 39.4461 68.9604 39.3579C68.1511 38.8873 68.1511 38.8873 67.4845 38.1561C67.2935 37.1562 67.2935 37.1562 67.2885 35.9779C67.2871 35.769 67.2857 35.5602 67.2842 35.345C67.2832 34.9046 67.2859 34.4642 67.2921 34.0238C67.3 33.351 67.2922 32.6791 67.2827 32.0063C67.2837 31.5776 67.2856 31.1488 67.2885 30.72C67.2901 30.3312 67.2918 29.9424 67.2935 29.5417C67.4845 28.5418 67.4845 28.5418 68.154 27.8141C69.3333 27.1208 70.1258 27.1751 71.5432 27.34Z" fill="#6DFF00"/>
<path d="M105.858 16.5239C106.751 17.2516 106.688 17.4236 106.692 18.4188C106.694 18.6905 106.697 18.9622 106.7 19.2421C106.699 19.541 106.698 19.8399 106.697 20.1479C106.7 20.6191 106.7 20.6191 106.703 21.0999C106.708 22.1429 106.707 23.1858 106.706 24.2288C106.708 24.9518 106.709 25.6749 106.711 26.3979C106.714 27.9157 106.714 29.4334 106.712 30.9511C106.71 32.897 106.716 34.8429 106.725 36.7888C106.73 38.2829 106.73 39.7771 106.729 41.2712C106.729 41.9886 106.731 42.7061 106.735 43.4235C106.74 44.4269 106.737 45.4302 106.733 46.4336C106.737 46.8792 106.737 46.8792 106.741 47.3338C106.727 48.8155 106.712 49.8878 105.489 51.0755C104.348 51.5399 103.424 51.4642 102.168 51.3759C101.245 50.8502 101.245 50.8502 100.692 50.1741C100.784 49.4981 100.784 49.4981 101.061 48.9724C101.304 49.0715 101.548 49.1707 101.799 49.2728C101.981 48.9754 101.981 48.9754 102.168 48.6719C102.411 49.0685 102.655 49.4651 102.906 49.8737C103.149 49.8737 103.393 49.8737 103.644 49.8737C103.826 49.5763 103.826 49.5763 104.013 49.2728C104.256 49.2728 104.5 49.2728 104.751 49.2728C104.751 49.6694 104.751 50.066 104.751 50.4746C104.994 50.4746 105.238 50.4746 105.489 50.4746C105.61 39.2709 105.732 28.0672 105.858 16.5239Z" fill="#6DFF00"/>
<path d="M16.197 30.3446C17.0696 30.9055 17.5476 31.3422 18.0419 32.1473C18.1712 33.7538 18.2057 34.7397 16.935 36.0531C15.7422 36.5387 14.5305 36.5686 13.2452 36.3535C12.1196 35.414 11.8072 34.7978 11.6079 33.4993C11.7828 32.3598 12.1365 31.6181 12.8763 30.645C14.017 30.1806 14.9404 30.2564 16.197 30.3446Z" fill="#6DFF00"/>
<path d="M27.2662 30.3446C28.1388 30.9055 28.6168 31.3422 29.1111 32.1473C29.2596 33.7189 29.0263 34.7086 28.0042 36.0531C26.8634 36.5175 25.94 36.4417 24.6834 36.3535C23.8108 35.7926 23.3329 35.3559 22.8386 34.5508C22.6901 32.9791 22.9233 31.9895 23.9455 30.645C25.0862 30.1806 26.0096 30.2564 27.2662 30.3446Z" fill="#6DFF00"/>
<path d="M94.7882 16.5239C95.6818 17.2516 95.6191 17.4236 95.6223 18.4188C95.6249 18.6905 95.6275 18.9622 95.6302 19.2421C95.6293 19.541 95.6284 19.8399 95.6275 20.1479C95.6303 20.6191 95.6303 20.6191 95.6332 21.0999C95.6383 22.1429 95.638 23.1858 95.6371 24.2288C95.6385 24.9518 95.6401 25.6749 95.6419 26.3979C95.6447 27.9157 95.6445 29.4334 95.6426 30.9511C95.6405 32.897 95.6467 34.8429 95.6553 36.7888C95.6607 38.2829 95.661 39.7771 95.6599 41.2712C95.6601 41.9886 95.662 42.7061 95.6657 43.4235C95.6703 44.4269 95.6678 45.4302 95.6635 46.4336C95.6677 46.8792 95.6677 46.8792 95.672 47.3338C95.6581 48.8155 95.6427 49.8878 94.4192 51.0755C93.2784 51.5399 92.3551 51.4642 91.0984 51.3759C90.1991 50.8314 90.1991 50.8314 89.6226 50.1741C89.6226 49.8767 89.6226 49.5793 89.6226 49.2728C89.8661 49.2728 90.1096 49.2728 90.3605 49.2728C90.4823 49.7685 90.604 50.2643 90.7295 50.775C90.973 50.775 91.2165 50.775 91.4674 50.775C91.5892 50.4776 91.7109 50.1802 91.8364 49.8737C92.2017 49.9728 92.567 50.072 92.9433 50.1741C93.1868 50.1741 93.4304 50.1741 93.6813 50.1741C93.6813 49.9759 93.6813 49.7776 93.6813 49.5732C94.0465 49.5732 94.4118 49.5732 94.7882 49.5732C94.7882 38.667 94.7882 27.7607 94.7882 16.5239Z" fill="#6DFF00"/>
<path d="M158.805 30.1943C160.321 30.3706 160.652 30.5773 161.572 31.5464C161.768 32.4101 161.768 32.4101 161.757 33.349C161.761 33.6589 161.765 33.9687 161.768 34.2879C161.527 35.3513 161.145 35.707 160.097 36.3535C158.805 36.5038 158.805 36.5038 157.514 36.3535C156.465 35.707 156.083 35.3513 155.842 34.2879C155.846 33.9781 155.849 33.6683 155.853 33.349C155.85 33.0392 155.846 32.7294 155.842 32.4101C156.178 30.9274 157.012 30.403 158.805 30.1943Z" fill="#6DFF00"/>
<path d="M139.065 19.5283C140.012 20.2998 139.894 20.8133 139.907 21.8652C139.906 22.1079 139.905 22.3506 139.904 22.6007C139.906 22.8562 139.908 23.1118 139.91 23.3751C139.915 24.223 139.915 25.0708 139.914 25.9187C139.915 26.507 139.917 27.0954 139.918 27.6837C139.921 28.9185 139.921 30.1533 139.919 31.3882C139.917 32.9704 139.923 34.5524 139.932 36.1346C139.937 37.3504 139.938 38.5662 139.936 39.782C139.937 40.3652 139.939 40.9485 139.942 41.5317C139.947 42.3481 139.944 43.1643 139.94 43.9806C139.943 44.2215 139.946 44.4624 139.949 44.7106C139.933 46.0815 139.752 46.9844 138.696 48.0709C137.605 48.5151 136.577 48.3895 135.375 48.3714C135.558 48.0739 135.558 48.0739 135.744 47.7705C136.718 47.6713 137.692 47.5722 138.696 47.47C138.818 38.2493 138.939 29.0285 139.065 19.5283Z" fill="#6DFF00"/>
<path d="M150.134 28.5417C151.349 30.0248 151.008 31.7001 151.011 33.4428C151.02 33.8106 151.029 34.1783 151.038 34.5572C151.05 37.5835 151.05 37.5835 150.218 38.7018C149.396 39.3579 149.396 39.3579 148.658 39.5762C147.33 39.5212 146.624 39.4578 145.499 38.8321C144.969 38.1561 144.969 38.1561 145.061 37.4801C145.152 37.3066 145.244 37.1331 145.338 36.9543C145.581 37.45 145.825 37.9458 146.076 38.4565C147.171 38.5557 148.267 38.6548 149.396 38.757C149.275 38.3604 149.153 37.9638 149.027 37.5552C149.271 37.5552 149.514 37.5552 149.765 37.5552C149.887 34.5808 150.009 31.6063 150.134 28.5417Z" fill="#6DFF00"/>
<path d="M50.5115 28.5417C51.7265 29.5311 51.3589 30.7662 51.3684 32.1125C51.3672 32.5019 51.366 32.8914 51.3648 33.2926C51.3707 33.6785 51.3766 34.0645 51.3828 34.4621C51.383 34.8341 51.3832 35.2061 51.3835 35.5894C51.3846 35.9301 51.3857 36.2709 51.3868 36.6219C51.2341 37.6595 50.9039 38.2242 50.1425 39.0574C49.0516 39.5016 48.0238 39.376 46.8218 39.3579C46.8218 39.2587 46.8218 39.1596 46.8218 39.0574C47.7959 38.9583 48.77 38.8591 49.7736 38.757C50.1863 37.6614 50.2177 36.6077 50.2593 35.4661C50.2669 35.2678 50.2746 35.0694 50.2825 34.865C50.3065 34.2345 50.3283 33.6039 50.3501 32.9734C50.366 32.5446 50.3821 32.1158 50.3984 31.6871C50.4378 30.6387 50.4752 29.5902 50.5115 28.5417Z" fill="#6DFF00"/>
<path d="M156.776 30.645C157.019 30.7442 157.263 30.8433 157.514 30.9455C157.392 31.2429 157.27 31.5404 157.145 31.8468C157.063 32.4153 156.995 32.9852 156.937 33.5556C156.891 34.0035 156.891 34.0035 156.844 34.4605C156.821 34.6886 156.799 34.9167 156.776 35.1517C157.385 35.0526 157.993 34.9534 158.621 34.8513C158.499 35.0496 158.377 35.2479 158.252 35.4522C159.589 35.8151 159.964 35.6154 161.204 35.1517C160.835 36.0531 160.835 36.0531 160.097 36.3535C157.799 36.5267 157.799 36.5267 156.701 35.8606C155.857 34.9588 155.862 34.4523 155.9 33.3303C155.904 33.017 155.909 32.7036 155.914 32.3808C156.038 31.5464 156.038 31.5464 156.776 30.645Z" fill="#6DFF00"/>
<path d="M13.6144 31.8467C13.6144 32.1441 13.6144 32.4416 13.6144 32.748C13.7438 32.9897 13.8731 33.2314 14.0064 33.4804C14.3809 34.3139 14.3541 34.6369 13.9834 35.4521C13.6181 35.4521 13.2528 35.4521 12.8764 35.4521C12.8764 35.0555 12.8764 34.6589 12.8764 34.2503C12.5112 34.3494 12.1459 34.4486 11.7695 34.5507C11.7695 33.8567 11.7695 33.1626 11.7695 32.4476C12.3783 32.2493 12.9871 32.051 13.6144 31.8467Z" fill="#6DFF00"/>
<path d="M60.4737 21.3311C60.839 21.5294 61.2043 21.7277 61.5807 21.932C61.4589 22.1303 61.3371 22.3286 61.2117 22.5329C61.0899 22.4337 60.9682 22.3346 60.8427 22.2324C59.9837 22.122 59.1226 22.0214 58.2599 21.932C58.1381 22.3286 58.0164 22.7251 57.8909 23.1338C57.4039 23.2329 56.9168 23.332 56.415 23.4342C56.5303 22.7206 56.5303 22.7206 56.784 21.932C58.1445 21.1934 58.8663 21.2376 60.4737 21.3311Z" fill="#6DFF00"/>
<path d="M137.958 18.3267C138.323 18.525 138.689 18.7233 139.065 18.9276C139.065 19.1259 139.065 19.3242 139.065 19.5285C138.7 19.5285 138.334 19.5285 137.958 19.5285C137.836 19.3302 137.715 19.1319 137.589 18.9276C136.687 18.9841 136.687 18.9841 135.744 19.228C135.242 19.8192 135.242 19.8192 135.006 20.4298C134.763 20.4298 134.519 20.4298 134.268 20.4298C134.147 20.6281 134.025 20.8264 133.899 21.0307C134.015 20.0167 134.015 20.0167 134.268 18.9276C135.629 18.189 136.351 18.2332 137.958 18.3267Z" fill="#6DFF00"/>
<path d="M115.82 21.3309C115.466 21.3774 115.466 21.3774 115.105 21.4248C114.853 21.493 114.602 21.5612 114.344 21.6314C114.222 21.9288 114.1 22.2263 113.975 22.5327C113.609 22.6319 113.244 22.731 112.868 22.8332C112.414 23.8883 112.414 23.8883 112.13 24.9363C112.008 24.9363 111.886 24.9363 111.761 24.9363C111.583 22.7644 111.583 22.7644 112.337 21.7816C113.539 21.1793 114.435 21.2442 115.82 21.3309Z" fill="#6DFF00"/>
<path d="M112.13 42.9634C112.374 43.2608 112.617 43.5583 112.868 43.8647C113.112 43.8647 113.355 43.8647 113.606 43.8647C113.728 44.1622 113.849 44.4596 113.975 44.7661C114.994 44.609 115.94 44.433 116.927 44.1652C116.558 45.0665 116.558 45.0665 115.82 45.367C113.539 45.539 113.539 45.539 112.315 44.8412C111.761 44.1652 111.761 44.1652 111.853 43.4892C111.945 43.3157 112.036 43.1421 112.13 42.9634Z" fill="#6DFF00"/>
<path d="M93.6813 15.322C94.0465 15.5203 94.4118 15.7186 94.7882 15.9229C94.6664 16.1212 94.5447 16.3195 94.4192 16.5238C94.0539 16.3255 93.6886 16.1272 93.3123 15.9229C92.1722 15.8982 92.1722 15.8982 91.0984 16.2234C90.6148 16.9573 90.6148 16.9573 90.3605 17.7256C89.9952 17.8743 89.9952 17.8743 89.6226 18.0261C89.7379 17.0121 89.7379 17.0121 89.9915 15.9229C91.352 15.1844 92.0738 15.2285 93.6813 15.322Z" fill="#6DFF00"/>
<path d="M126.889 21.3311C127.788 21.932 127.788 21.932 128.365 22.5329C128.243 22.8304 128.121 23.1278 127.996 23.4343C127.442 23.0212 127.442 23.0212 126.889 22.5329C126.889 22.3346 126.889 22.1363 126.889 21.932C125.466 21.8658 124.493 22.0511 123.199 22.5329C123.321 22.2355 123.443 21.938 123.568 21.6316C124.709 21.1671 125.632 21.2429 126.889 21.3311Z" fill="#6DFF00"/>
<path d="M100.692 48.9724C101.322 49.3572 101.937 49.7589 102.537 50.1742C102.537 50.3725 102.537 50.5708 102.537 50.7751C103.511 50.7751 104.485 50.7751 105.489 50.7751C104.751 51.376 104.751 51.376 103.505 51.4887C102.168 51.376 102.168 51.376 101.268 50.8502C100.692 50.1742 100.692 50.1742 100.692 48.9724Z" fill="#6DFF00"/>
<path d="M157.514 30.3444C159.958 30.2693 159.958 30.2693 161.203 30.9453C161.082 31.3419 160.96 31.7385 160.834 32.1471C160.834 31.9488 160.834 31.7505 160.834 31.5462C159.739 31.3975 159.739 31.3975 158.621 31.2457C158.621 31.0474 158.621 30.8491 158.621 30.6448C158.255 30.5457 157.89 30.4465 157.514 30.3444ZM158.621 31.5462C159.359 31.8466 159.359 31.8466 159.359 31.8466L158.621 31.5462Z" fill="#6DFF00"/>
<path d="M12.1382 34.2502C12.3817 34.2502 12.6252 34.2502 12.8761 34.2502C12.9979 34.6468 13.1197 35.0434 13.2451 35.452C13.9757 35.452 14.7062 35.452 15.4589 35.452C15.4589 35.6503 15.4589 35.8486 15.4589 36.0529C15.7025 36.1521 15.946 36.2512 16.1969 36.3534C14.244 36.4577 14.244 36.4577 13.2451 36.3534C12.5072 35.8088 12.5072 35.8088 12.1382 35.1516C12.1382 34.8541 12.1382 34.5567 12.1382 34.2502Z" fill="#6DFF00"/>
<path d="M23.2075 34.8513C23.5728 34.9505 23.9381 35.0496 24.3144 35.1518C24.3144 35.3501 24.3144 35.5484 24.3144 35.7527C24.558 35.5544 24.8015 35.3561 25.0524 35.1518C25.4177 35.1518 25.7829 35.1518 26.1593 35.1518C26.1593 35.3501 26.1593 35.5484 26.1593 35.7527C26.6463 35.8518 27.1334 35.951 27.6352 36.0531C27.2662 36.3536 27.2662 36.3536 26.044 36.4475C24.6834 36.3536 24.6834 36.3536 23.784 35.7714C23.2075 35.1518 23.2075 35.1518 23.2075 34.8513Z" fill="#6DFF00"/>
<path d="M157.514 34.8513C157.879 34.9505 158.244 35.0496 158.62 35.1518C158.499 35.2509 158.377 35.3501 158.251 35.4522C159.588 35.8151 159.964 35.6154 161.203 35.1518C160.834 36.0531 160.834 36.0531 160.096 36.3536C159.236 36.3656 158.374 36.3665 157.514 36.3536C157.306 35.7714 157.306 35.7714 157.145 35.1518C157.266 35.0526 157.388 34.9535 157.514 34.8513Z" fill="#6DFF00"/>
<path d="M27.2664 30.3446C27.6317 30.5429 27.997 30.7412 28.3733 30.9455C28.2515 31.1438 28.1298 31.3421 28.0043 31.5464C27.0911 31.2489 27.0911 31.2489 26.1595 30.9455C26.1595 31.0446 26.1595 31.1438 26.1595 31.2459C25.3071 31.3451 24.4548 31.4442 23.5767 31.5464C23.6984 31.2489 23.8202 30.9515 23.9456 30.645C25.0594 30.1915 26.0388 30.292 27.2664 30.3446Z" fill="#6DFF00"/>
<path d="M23.2076 31.5464C23.3293 31.5464 23.4511 31.5464 23.5765 31.5464C24.0307 33.4693 24.0307 33.4693 23.5996 34.3819C23.4702 34.5368 23.3409 34.6917 23.2076 34.8513C22.8386 34.5509 22.8386 34.5509 22.7925 33.5369C22.8386 32.4477 22.8386 32.4477 23.2076 31.5464Z" fill="#6DFF00"/>
<path d="M61.5808 44.4657C61.1888 44.9164 61.1888 44.9164 60.4739 45.367C59.1133 45.4234 59.1133 45.4234 57.8911 45.367C58.889 44.2198 59.9651 44.3912 61.5808 44.4657Z" fill="#6DFF00"/>
<path d="M37.2285 27.3401C38.1417 27.4888 38.1417 27.4888 39.0734 27.6405C39.1951 27.938 39.3169 28.2354 39.4424 28.5419C38.8335 28.5419 38.2247 28.5419 37.5975 28.5419C37.4757 28.1453 37.354 27.7487 37.2285 27.3401Z" fill="#6DFF00"/>
<path d="M89.9915 15.9229C90.3568 16.022 90.7221 16.1211 91.0984 16.2233C90.4527 17.688 90.4527 17.688 89.6226 18.026C89.7443 17.332 89.8661 16.6379 89.9915 15.9229Z" fill="#6DFF00"/>
</svg>
